<?xml version="1.0" standalone="no"?>
<!DOCTYPE svg PUBLIC "-//W3C//DTD SVG 20010904//EN"
 "http://www.w3.org/TR/2001/REC-SVG-20010904/DTD/svg10.dtd">
<svg version="1.0" xmlns="http://www.w3.org/2000/svg"
 width="560.000000pt" height="560.000000pt" viewBox="0 0 560.000000 560.000000"
 preserveAspectRatio="xMidYMid meet">
<metadata>
Created by potrace 1.14, written by Peter Selinger 2001-2017
</metadata>
<g transform="translate(0.000000,560.000000) scale(0.100000,-0.100000)"
fill="#000000" stroke="none">
<path d="M2600 5405 c-124 -20 -303 -68 -380 -103 -114 -52 -149 -63 -218 -73
-97 -14 -166 -46 -224 -106 -61 -62 -90 -129 -93 -212 -3 -92 24 -168 83 -233
l25 -27 -29 -47 c-24 -40 -47 -58 -144 -113 -351 -201 -644 -481 -855 -816
-149 -237 -271 -544 -321 -809 -2 -12 -6 -32 -8 -46 -28 -143 -35 -249 -31
-465 5 -298 45 -524 140 -781 252 -685 812 -1227 1498 -1452 159 -52 353 -96
497 -111 126 -13 430 -11 550 4 710 90 1332 479 1722 1075 148 225 275 529
332 790 44 203 54 306 53 525 0 160 -17 352 -42 470 -79 381 -253 747 -501
1051 -101 124 -279 295 -418 398 -63 47 -117 86 -120 86 -3 0 -37 20 -75 45
-38 25 -74 45 -80 45 -10 0 -50 78 -65 126 -3 11 1 40 9 64 53 149 -29 316
-165 335 -46 6 -52 11 -79 54 -41 67 -91 96 -164 96 -56 0 -60 2 -119 55 -172
155 -472 223 -778 175z"/>
</g>
</svg>
